<?xml version="1.0" encoding="iso-8859-1"?><!-- Generator: Adobe Illustrator 19.1.1, SVG Export Plug-In . SVG Version: 6.00 Build 0)  --><svg xmlns="http://www.w3.org/2000/svg" xmlns:xlink="http://www.w3.org/1999/xlink" viewBox="0 0 48 48" width="480px" height="480px"><path style="fill:#FFC107;" d="M37,45H11c-1.657,0-3-1.343-3-3V6c0-1.657,1.343-3,3-3h19l10,10v29C40,43.657,38.657,45,37,45z"/><polygon style="fill:#FFECB3;" points="40,13 30,13 30,3 "/><polygon style="fill:#FFA000;" points="30,13 40,23 40,13 "/><path style="fill:#FFFFFF;" d="M30,22H18c-1.1,0-2,0.9-2,2v12c0,1.1,0.9,2,2,2h12c1.1,0,2-0.9,2-2V24C32,22.9,31.1,22,30,22z M30,26v8H18v-8H30z"/></svg>